<svg width="1020" height="308" viewBox="0 0 1020 308" fill="none" xmlns="http://www.w3.org/2000/svg">
<path d="M91.752 82C142.425 82 183.504 123.414 183.504 174.5C183.504 212.116 161.231 244.486 129.257 258.942L184 308H97.208L55.6172 259.548C55.2622 259.394 54.9083 259.239 54.5557 259.081V308H0V175H0.00292969C0.00205521 174.833 0 174.667 0 174.5C0 123.414 41.0787 82 91.752 82Z" fill="#CA3C41"/>
<circle cx="92" cy="175" r="46" fill="white"/>
<path d="M92 152C100.837 152 108 159.316 108 168.341C108 173.876 105.304 178.766 101.182 181.722L108 200H76L82.8174 181.722C78.6953 178.766 76.0001 173.875 76 168.341C76 159.316 83.1634 152 92 152Z" fill="black"/>
<path d="M304.741 7.96876C335.252 -2.28266 368.201 -2.65198 398.933 6.91212C429.664 16.4763 456.622 35.4909 475.997 61.2676L407.888 112.814C395.311 96.5031 375.614 86.0001 353.471 86C315.494 86 284.708 116.892 284.708 155C284.708 193.108 315.494 224 353.471 224C376.186 224 396.327 212.947 408.848 195.909L476 246.73C456.626 272.508 429.668 291.522 398.937 301.087C368.206 310.652 335.256 310.283 304.745 300.032C274.234 289.781 247.705 270.168 228.909 243.963C210.113 217.758 200 186.288 200 154.002C200 121.715 210.112 90.2451 228.907 64.0401C247.703 37.835 274.231 18.2202 304.741 7.96876Z" fill="#292524"/>
<path d="M1020 0V82H872V127H970V209H872V308H790V0H1020Z" fill="#292524"/>
<path d="M767 82H669V308H587V82H489V0H767V82Z" fill="#292524"/>
</svg>
